<svg width="640" height="260" viewBox="0 0 640 260" xmlns="http://www.w3.org/2000/svg">
  <path d="m0 0h640v260h-640z" fill="#fff"/>
  <path d="m92.488 129.45c9.594 0 18.778-5.084 22.878-13.694l-9.758-5.494c-2.542 4.756-6.97 7.79-13.612 7.79-9.266 0-15.826-7.298-15.826-17.302s6.642-17.302 15.826-17.302c6.642 0 10.906 3.034 13.612 7.79l9.758-5.494c-4.1-8.61-13.284-13.694-22.878-13.694-16.072 0-28.618 12.71-28.618 28.7s12.546 28.7 28.618 28.7zm55.416-0.082c16.318 0 28.782-12.3 28.782-28.618 0-16.236-12.382-28.618-28.782-28.618-16.318 0-28.7 12.382-28.7 28.618 0 16.318 12.382 28.618 28.7 28.618zm0-11.316c-9.184 0-16.4-7.544-16.4-17.302s7.216-17.302 16.4-17.302c9.266 0 16.4 7.544 16.4 17.302s-7.216 17.302-16.4 17.302zm50.884-44.936h-11.972v44.936c0 6.314 2.952 10.25 10.578 10.25h27.142v-11.07h-25.748zm45.884 0h-11.972v44.936c0 6.314 2.952 10.25 10.578 10.25h27.142v-11.07h-25.748zm73.355 55.186v-10.742h-28.29v-11.48h26.076v-10.742h-26.076v-11.48h27.798v-10.742h-29.192c-7.626 0-10.578 4.018-10.578 10.332v34.604c0 6.314 2.952 10.25 10.578 10.25zm35.836 1.148c9.594 0 18.778-5.084 22.878-13.694l-9.758-5.494c-2.542 4.756-6.97 7.79-13.612 7.79-9.266 0-15.826-7.298-15.826-17.302s6.642-17.302 15.826-17.302c6.642 0 10.906 3.034 13.612 7.79l9.758-5.494c-4.1-8.61-13.284-13.694-22.878-13.694-16.072 0-28.618 12.71-28.618 28.7s12.546 28.7 28.618 28.7zm69.598-56.334h-44.444v11.07h16.236v44.116h11.972v-44.116h16.236zm8.634 0v55.186h11.972v-55.186zm50.856 56.252c16.318 0 28.782-12.3 28.782-28.618 0-16.236-12.382-28.618-28.782-28.618-16.318 0-28.7 12.382-28.7 28.618 0 16.318 12.382 28.618 28.7 28.618zm0-11.316c-9.184 0-16.4-7.544-16.4-17.302s7.216-17.302 16.4-17.302c9.266 0 16.4 7.544 16.4 17.302s-7.216 17.302-16.4 17.302zm49.735 10.25v-40.836l21.812 37.638c1.804 3.034 4.838 4.264 8.364 4.264 4.346 0 8.364-3.116 8.364-8.61v-47.642h-11.316v40.59l-21.812-37.392c-1.804-3.034-4.674-4.346-8.282-4.346-4.51 0-8.528 3.198-8.528 8.692v47.642z" fill="#f4f4f5"/>
  <path d="m61 136.99h517.11v7.544h-517.11z" fill="#f4f4f5"/>
  <path d="m310.16 144.56c6.149 0 11.051-3.784 11.051-8.987 0-6.579-5.676-8.127-9.976-8.858-3.139-0.559-5.547-1.161-5.547-3.483 0-1.763 1.634-2.881 3.999-2.881 2.924 0 4.816 1.29 5.762 3.139l5.246-2.623c-1.849-4.128-5.977-6.321-10.75-6.321-5.977 0-10.535 3.87-10.535 8.944 0 6.536 5.891 8.084 10.234 8.815 3.01 0.516 5.289 0.903 5.289 3.311 0 2.064-2.064 3.182-4.773 3.182-3.01 0-5.031-1.075-5.977-3.182l-5.246 2.623c1.849 4.128 6.02 6.321 11.223 6.321zm27.537 0.043c3.354 0 5.418-1.763 6.536-5.332l7.439-24.209h-6.45l-6.622 22.403c-0.172 0.559-0.43 0.86-0.86 0.86s-0.731-0.301-0.903-0.86l-6.665-22.403h-6.45l7.439 24.209c1.118 3.569 3.182 5.332 6.536 5.332zm30.827 0c5.719 0 10.191-2.537 12.298-5.719v-8.514h-6.106l0.043 6.407c-1.333 1.376-3.397 2.107-6.235 2.107-5.074 0-8.557-3.827-8.557-9.245 0-5.246 3.44-9.202 8.299-9.202 3.44 0 5.676 1.548 7.138 4.128l5.117-2.881c-2.15-4.644-7.052-7.138-11.997-7.138-8.557 0-15.007 6.665-15.007 15.007s6.536 15.05 15.007 15.05zm36.929-0.602v-5.805h-12.04l7.138-6.278c2.666-2.322 4.128-4.945 4.128-8.6 0-4.816-3.999-8.815-9.761-8.815-5.117 0-8.987 3.053-10.836 7.138l4.816 2.709c1.032-2.236 3.053-3.956 5.504-3.956 2.408 0 3.999 1.591 3.999 3.483 0 2.064-1.161 3.44-3.311 5.375l-7.783 6.794c-1.419 1.204-2.107 2.537-2.107 4.171 0 2.064 1.505 3.784 4.515 3.784zm22.393 0v-4.601h4.257v-5.16h-4.257v-16.082c0-2.408-1.548-3.655-3.526-3.655-2.021 0-3.225 0.946-4.472 2.623l-11.137 15.007c-0.903 1.204-1.333 2.408-1.333 3.483 0 2.15 1.677 3.784 4.73 3.784h9.632v4.601zm-6.192-21.07c0.043-0.086 0.043-0.129 0.086-0.172v11.481h-8.342z" fill="#1e2025"/>
  <path d="m236.22 99.718 37.118 9.9466c3.739 1.002 5.943 4.818 4.941 8.557l-9.946 37.119c-1.002 3.739-4.819 5.942-8.558 4.94l-37.118-9.946c-3.739-1.002-5.943-4.819-4.941-8.557l9.946-37.119c1.002-3.739 4.819-5.9423 8.558-4.9406z" fill="#e5def7"/>
  <path d="m244.46 97.702 33.281 19.214c3.352 1.935 4.493 6.192 2.557 9.544l-19.214 33.281c-1.936 3.352-6.193 4.493-9.545 2.557l-33.28-19.214c-3.352-1.936-4.493-6.193-2.557-9.545l19.214-33.28c1.935-3.3522 6.192-4.4929 9.544-2.5574z" fill="#cec1f0"/>
  <path d="m252.94 97.886 27.173 27.173c2.737 2.737 2.737 7.144 0 9.881l-27.173 27.174c-2.738 2.737-7.145 2.737-9.882 0l-27.173-27.174c-2.737-2.737-2.737-7.144 0-9.881l27.173-27.173c2.737-2.7371 7.144-2.7371 9.882 0z" fill="#b5a6e3"/>
  <path d="m261.08 100.26 19.215 33.281c1.935 3.352 0.795 7.609-2.558 9.544l-33.28 19.214c-3.352 1.936-7.609 0.795-9.545-2.557l-19.214-33.28c-1.935-3.353-0.795-7.609 2.558-9.545l33.28-19.214c3.352-1.9354 7.609-0.7947 9.544 2.5572z" fill="#9987cf"/>
  <path d="m268.34 104.66 9.946 37.119c1.002 3.738-1.201 7.555-4.94 8.557l-37.119 9.946c-3.739 1.002-7.555-1.201-8.557-4.94l-9.947-37.119c-1.001-3.739 1.202-7.556 4.941-8.557l37.119-9.9466c3.739-1.0018 7.555 1.2016 8.557 4.9406z" fill="#7866b2"/>
  <path d="m274.2 110.79v38.427c0 3.871-3.116 6.987-6.987 6.987h-38.427c-3.871 0-6.987-3.116-6.987-6.987v-38.427c0-3.871 3.116-6.987 6.987-6.987h38.427c3.871 0 6.987 3.116 6.987 6.987z" fill="#645398"/>
  <path d="m255.36 131.82 2.513-4.37c0.153-0.266 0.233-0.567 0.233-0.874 0-0.306-0.08-0.608-0.233-0.873-0.153-0.266-0.373-0.487-0.638-0.64-0.264-0.154-0.565-0.235-0.871-0.235h-5.031l-1.762-3.066c-0.153-0.266-0.373-0.486-0.638-0.64-0.265-0.153-0.566-0.234-0.872-0.234s-0.607 0.081-0.872 0.234c-0.265 0.154-0.485 0.374-0.638 0.64l-1.762 3.066h-5.019c-0.306 0-0.607 0.081-0.872 0.235-0.265 0.153-0.485 0.374-0.637 0.64-0.153 0.265-0.234 0.567-0.234 0.873 0 0.307 0.081 0.608 0.234 0.874l2.51 4.355-2.519 4.372c-0.153 0.266-0.234 0.567-0.234 0.874s0.081 0.608 0.234 0.874c0.153 0.265 0.373 0.486 0.637 0.64 0.265 0.153 0.566 0.234 0.872 0.234h5.037l1.761 3.066c0.157 0.262 0.378 0.478 0.643 0.628s0.563 0.229 0.868 0.229c0.304 0 0.603-0.079 0.867-0.229 0.265-0.15 0.486-0.366 0.643-0.628l1.761-3.066h5.02c0.306 1e-3 0.607-0.08 0.872-0.233 0.266-0.154 0.486-0.374 0.639-0.64s0.234-0.567 0.234-0.874-0.08-0.609-0.234-0.875z" fill="#554781"/>
  <path d="m255.36 130.08 2.513-4.37c0.153-0.266 0.233-0.567 0.233-0.874 0-0.306-0.08-0.608-0.233-0.873-0.153-0.266-0.373-0.487-0.638-0.64-0.264-0.154-0.565-0.235-0.871-0.235h-5.031l-1.762-3.066c-0.153-0.266-0.373-0.486-0.638-0.64-0.265-0.153-0.566-0.234-0.872-0.234s-0.607 0.081-0.872 0.234c-0.265 0.154-0.485 0.374-0.638 0.64l-1.762 3.066h-5.019c-0.306 0-0.607 0.081-0.872 0.235-0.265 0.153-0.485 0.374-0.637 0.64-0.153 0.265-0.234 0.567-0.234 0.873 0 0.307 0.081 0.608 0.234 0.874l2.51 4.355-2.519 4.373c-0.153 0.265-0.234 0.566-0.234 0.873s0.081 0.608 0.234 0.874 0.373 0.486 0.637 0.64c0.265 0.153 0.566 0.234 0.872 0.234h5.037l1.761 3.066c0.157 0.262 0.378 0.478 0.643 0.628 0.265 0.151 0.563 0.23 0.868 0.23 0.304 0 0.603-0.079 0.867-0.23 0.265-0.15 0.486-0.366 0.643-0.628l1.761-3.066h5.02c0.306 1e-3 0.607-0.08 0.872-0.233 0.266-0.154 0.486-0.374 0.639-0.64s0.234-0.567 0.234-0.874-0.08-0.609-0.234-0.874z" fill="#b5a6e3"/>
</svg>
