<svg width="24" height="24" viewBox="0 0 24 24" xmlns="http://www.w3.org/2000/svg">
  <path d="m8.5527 3.1371 10.864 2.9111c1.0943 0.29322 1.7392 1.4103 1.446 2.5046l-2.9111 10.864c-0.29322 1.0943-1.4103 1.7392-2.5046 1.446l-10.864-2.9111c-1.0943-0.29322-1.7392-1.4103-1.446-2.5046l2.9111-10.864c0.29322-1.0943 1.4103-1.7392 2.5046-1.446z" fill="#e5def7"/>
  <path d="m10.964 2.5468 9.7406 5.6237c0.98114 0.56646 1.315 1.8124 0.74852 2.7935l-5.6237 9.7406c-0.56646 0.98114-1.8124 1.315-2.7935 0.74852l-9.7406-5.6237c-0.98114-0.56646-1.315-1.8124-0.74852-2.7935l5.6237-9.7406c0.56646-0.98114 1.8124-1.315 2.7935-0.74852z" fill="#cec1f0"/>
  <path d="m13.446 2.6008 7.9531 7.9531c0.8011 0.8011 0.8011 2.091 0 2.8921l-7.9531 7.9531c-0.8011 0.8011-2.091 0.8011-2.8921 0l-7.9531-7.9531c-0.8011-0.8011-0.8011-2.091-2e-7 -2.8921l7.9531-7.9531c0.8011-0.8011 2.091-0.8011 2.8921 2e-7z" fill="#b5a6e3"/>
  <path d="m15.829 3.2954 5.6237 9.7406c0.56646 0.98114 0.23262 2.227-0.74852 2.7935l-9.7406 5.6237c-0.98114 0.56646-2.227 0.23262-2.7935-0.74852l-5.6237-9.7406c-0.56646-0.98114-0.23262-2.227 0.74852-2.7935l9.7406-5.6237c0.98114-0.56646 2.227-0.23262 2.7935 0.74852z" fill="#9987cf"/>
  <path d="m17.952 4.5831 2.9111 10.864c0.29322 1.0943-0.3517 2.2114-1.446 2.5046l-10.864 2.9111c-1.0943 0.29322-2.2114-0.3517-2.5046-1.446l-2.9111-10.864c-0.29322-1.0943 0.35171-2.2114 1.446-2.5046l10.864-2.9111c1.0943-0.29322 2.2114 0.35171 2.5046 1.446z" fill="#7866b2"/>
  <path d="m19.669 6.3763v11.247c0 1.1329-0.91207 2.045-2.045 2.045h-11.247c-1.1329 0-2.045-0.91207-2.045-2.045v-11.247c0-1.1329 0.91207-2.045 2.045-2.045h11.247c1.1329 0 2.045 0.91207 2.045 2.045z" fill="#645398"/>
  <path d="m14.155 12.534 0.73543-1.2789c0.04473-0.07775 0.06838-0.16593 0.06838-0.25569 0-0.08977-0.02352-0.17797-0.06825-0.25571-0.04473-0.07776-0.10915-0.14234-0.18673-0.18727-0.07745-0.04493-0.16539-0.06861-0.25498-0.06867h-1.4726l-0.5155-0.89738c-0.04477-0.077799-0.1092-0.14241-0.1868-0.18733-0.07761-0.044926-0.16563-0.068571-0.25524-0.068571-0.0896 0-0.17763 0.023645-0.25523 0.068571-0.0776 0.044926-0.14202 0.10953-0.18681 0.18733l-0.51549 0.89738h-1.4692c-0.089545 6.4e-5 -0.17751 0.02375-0.25504 0.06867-0.077531 0.04493-0.14191 0.10951-0.18666 0.18727-0.044747 0.07775-0.068303 0.16594-0.068277 0.25571 1.28e-5 0.08976 0.023594 0.17794 0.068367 0.25569l0.73459 1.2746-0.73717 1.2798c-0.044773 0.07774-0.068354 0.16586-0.068367 0.25571-1.28e-5 0.08972 0.02353 0.17791 0.068277 0.25575 0.04476 0.07771 0.10913 0.14225 0.18666 0.18724 0.077531 0.04486 0.16549 0.06851 0.25505 0.06863h1.4743l0.51549 0.89737c0.04581 0.07656 0.11058 0.13983 0.18805 0.18379 0.07747 0.04397 0.16497 0.0671 0.25399 0.0671 0.08902 0 0.17652-0.02313 0.25399-0.0671 0.07747-0.04397 0.14226-0.10723 0.18805-0.18379l0.51549-0.89737h1.4691c0.0896 1.28e-4 0.17766-0.02352 0.25537-0.06838s0.14213-0.10941 0.18699-0.18724c0.04486-0.07771 0.06851-0.16603 0.06851-0.25575 0-0.08985-0.02352-0.17817-0.06838-0.25597z" fill="#554781"/>
  <path d="m14.155 12.023 0.73543-1.2789c0.04473-0.07775 0.06838-0.16593 0.06838-0.25569 0-0.08977-0.02352-0.17796-0.06825-0.25571-0.04473-0.07776-0.10915-0.14234-0.18673-0.18727-0.07745-0.04493-0.16539-0.06861-0.25498-0.068674h-1.4726l-0.5155-0.89738c-0.04477-0.077799-0.1092-0.14241-0.1868-0.18733-0.07761-0.044926-0.16563-0.068571-0.25524-0.068571-0.0896 0-0.17763 0.023645-0.25523 0.068571-0.0776 0.044926-0.14202 0.10953-0.18681 0.18733l-0.51549 0.89738h-1.4692c-0.089545 6.39e-5 -0.17751 0.023748-0.25504 0.068674-0.077531 0.04493-0.14191 0.10951-0.18666 0.18727-0.044747 0.07775-0.068303 0.16594-0.068277 0.25571 1.28e-5 0.08976 0.023594 0.17794 0.068367 0.25569l0.73459 1.2746-0.73717 1.2798c-0.044773 0.07774-0.068354 0.16592-0.068367 0.25569-1.28e-5 0.08977 0.02353 0.17796 0.068277 0.25571 0.04476 0.07776 0.10913 0.14232 0.18666 0.18731 0.077531 0.04486 0.16549 0.06851 0.25505 0.06864h1.4743l0.51549 0.89737c0.04581 0.07656 0.11058 0.13983 0.18805 0.18379 0.07747 0.04397 0.16497 0.0671 0.25399 0.0671 0.08902 0 0.17652-0.02313 0.25399-0.0671 0.07747-0.04397 0.14226-0.10724 0.18805-0.18379l0.51549-0.89737h1.4691c0.0896 1.28e-4 0.17766-0.02352 0.25537-0.06838s0.14213-0.10941 0.18699-0.18719c0.04486-0.07777 0.06851-0.16603 0.06851-0.25587 0-0.08984-0.02352-0.17811-0.06838-0.2559z" fill="#b5a6e3"/>
</svg>
